<svg width="74" height="74" viewBox="0 0 74 74" fill="none" xmlns="http://www.w3.org/2000/svg">
<rect y="36.7695" width="52" height="52" rx="17" transform="rotate(-45 0 36.7695)" fill="#1F77F8"/>
<path d="M52.7696 36.7695C52.7696 39.934 51.8312 43.0275 50.0731 45.6587C48.315 48.2898 45.8161 50.3406 42.8925 51.5516C39.9689 52.7626 36.7518 53.0795 33.6481 52.4621C30.5444 51.8447 27.6935 50.3209 25.4558 48.0832C23.2182 45.8456 21.6944 42.9947 21.077 39.891C20.4596 36.7873 20.7765 33.5702 21.9875 30.6466C23.1985 27.723 25.2492 25.2241 27.8804 23.466C30.5116 21.7079 33.6051 20.7695 36.7696 20.7695L36.7696 36.7695H52.7696Z" fill="white"/>
</svg>
